<svg width="676" height="303" viewBox="0 0 676 303" fill="none" xmlns="http://www.w3.org/2000/svg">
<g clip-path="url(#clip0_5_1360)">
<g filter="url(#filter0_i_5_1360)">
<rect width="676" height="303" rx="46" fill="#0A0A0D"/>
</g>
<mask id="mask0_5_1360" style="mask-type:alpha" maskUnits="userSpaceOnUse" x="0" y="0" width="676" height="303">
<rect width="676" height="303" rx="46" fill="#0A0A0D"/>
</mask>
<g mask="url(#mask0_5_1360)">
<g filter="url(#filter1_f_5_1360)">
<ellipse cx="151.869" cy="29.2986" rx="187.058" ry="36.716" fill="#2F2F2D" fill-opacity="0.8"/>
</g>
<g filter="url(#filter2_f_5_1360)">
<ellipse cx="550.06" cy="275.185" rx="187.058" ry="36.716" fill="#2F2F2D" fill-opacity="0.8"/>
</g>
<ellipse cx="677.056" cy="315.272" rx="265.119" ry="112.144" fill="url(#paint0_radial_5_1360)"/>
<ellipse opacity="0.68" cx="609" cy="239.5" rx="103" ry="87.5" fill="url(#paint1_radial_5_1360)"/>
<path fill-rule="evenodd" clip-rule="evenodd" d="M449.142 154.964V105.14L448.886 106.022L399.156 91.6277L398.49 91.435V90.7422V59.1346L384.621 44.9028L380.279 44.8487C379.648 49.9473 375.273 53.8634 370.021 53.798C364.382 53.7278 359.868 49.0956 359.938 43.4516C360.008 37.8076 364.636 33.2891 370.274 33.3593C375.678 33.4265 380.049 37.6836 380.342 43.0057L385.026 43.064L385.408 43.0687L385.675 43.3424L398.49 56.4929V28.2952C397.421 27.9483 396.649 26.9438 396.649 25.7586C396.649 24.2862 397.841 23.0925 399.312 23.0925C400.783 23.0925 401.976 24.2862 401.976 25.7586C401.976 26.8689 401.298 27.8207 400.334 28.2218V90.0493L432.195 99.2712L418.958 83.0327L418.751 82.7784V82.4503V2.48308C417.682 2.13617 416.91 1.13164 416.91 -0.0534935C416.91 -1.52596 418.102 -2.71962 419.573 -2.71962C421.044 -2.71962 422.237 -1.52596 422.237 -0.0534935C422.237 1.05686 421.559 2.00868 420.594 2.40967V82.1222L435.122 99.9442L434.964 100.073L449.142 104.176V-23H450.985V103.261L464.235 90.5829V28.3808C463.219 28.0054 462.494 27.0268 462.494 25.8787C462.494 24.4062 463.686 23.2126 465.157 23.2126C466.628 23.2126 467.821 24.4062 467.821 25.8787C467.821 27.0268 467.096 28.0054 466.079 28.3808V90.9767V91.3705L465.795 91.6428L450.985 105.812V138.346L479.995 106.175V60.4456C478.863 60.138 478.031 59.1025 478.031 57.8725C478.031 56.4 479.224 55.2063 480.695 55.2063C482.166 55.2063 483.358 56.4 483.358 57.8725C483.358 58.9351 482.737 59.8526 481.838 60.2809V106.53V106.884L481.601 107.147L450.985 141.1V154.042H497.563H545.507H545.887L546.157 154.31L578.293 186.258H676.242V188.102H577.913H577.533L577.263 187.834L545.127 155.886H497.563H450.064H449.142V154.964ZM370.378 42.8817L378.493 42.9827C378.192 38.6784 374.635 35.2574 370.252 35.2028C365.633 35.1453 361.839 38.847 361.782 43.4745C361.724 48.102 365.425 51.897 370.043 51.9545C374.275 52.0071 377.814 48.9046 378.422 44.8256L370.355 44.7252L370.378 42.8817ZM611.241 -22.3332V129.011C616.448 129.477 620.53 133.856 620.53 139.19C620.53 144.834 615.958 149.41 610.319 149.41C604.681 149.41 600.109 144.834 600.109 139.19C600.109 133.856 604.191 129.477 609.398 129.011V30.3049L596.148 43.3725V106.915C597.165 107.291 597.89 108.269 597.89 109.417C597.89 110.89 596.697 112.084 595.226 112.084C593.755 112.084 592.563 110.89 592.563 109.417C592.563 108.269 593.288 107.291 594.304 106.915V42.9869V42.6013L594.579 42.3306L609.398 27.7154V-3.44317L578.835 27.1492V89.5855C579.852 89.961 580.577 90.9395 580.577 92.0876C580.577 93.5601 579.384 94.7538 577.913 94.7538C576.442 94.7538 575.25 93.5601 575.25 92.0876C575.25 90.9395 575.975 89.9609 576.991 89.5855V46.3247L564.408 58.9208V63.2683C569.508 63.8374 573.474 68.1676 573.474 73.4251C573.474 79.0695 568.903 83.6452 563.264 83.6452C557.625 83.6452 553.054 79.0695 553.054 73.4251C553.054 68.0161 557.251 63.5885 562.564 63.2285V58.5392V58.1576L562.834 57.8877L576.991 43.7161V26.7677V26.3861L577.261 26.1161L609.398 -6.05181V-22.3332H611.241ZM562.564 65.0775C558.272 65.4334 554.897 69.0333 554.897 73.4251C554.897 78.053 558.645 81.8015 563.264 81.8015C567.883 81.8015 571.63 78.053 571.63 73.4251C571.63 69.1859 568.486 65.6845 564.408 65.1262V73.2029H562.564V65.0775ZM609.398 136.301V130.863C605.212 131.323 601.953 134.874 601.953 139.19C601.953 143.818 605.7 147.566 610.319 147.566C614.939 147.566 618.686 143.818 618.686 139.19C618.686 134.874 615.427 131.323 611.241 130.863V136.301H609.398ZM638.731 57.8725C638.731 56.7244 639.456 55.7458 640.472 55.3703V-22.3332H642.316V55.3703C643.333 55.7458 644.058 56.7244 644.058 57.8725C644.058 59.3449 642.865 60.5386 641.394 60.5386C639.923 60.5386 638.731 59.3449 638.731 57.8725ZM661.405 57.6506V-22.3332H659.561V57.4025L640.597 90.0701L640.472 90.2847V90.5329V129.011C635.265 129.477 631.184 133.856 631.184 139.19C631.184 144.834 635.755 149.41 641.394 149.41C647.033 149.41 651.604 144.834 651.604 139.19C651.604 133.856 647.523 129.477 642.316 129.011V90.7811L661.28 58.1134L661.405 57.8988V57.6506ZM640.472 130.863V136.688C639.456 137.063 638.731 138.042 638.731 139.19C638.731 140.662 639.923 141.856 641.394 141.856C642.865 141.856 644.058 140.662 644.058 139.19C644.058 138.042 643.333 137.063 642.316 136.688V130.863C646.502 131.323 649.761 134.874 649.761 139.19C649.761 143.818 646.013 147.566 641.394 147.566C636.775 147.566 633.028 143.818 633.028 139.19C633.028 134.874 636.287 131.323 640.472 130.863ZM496.641 102.297V138.745V139.667H497.563H545.127L577.263 171.614L577.533 171.882H577.913H676.242V170.039H578.293L546.157 138.091L545.887 137.823H545.507H498.485V102.217C503.478 101.549 507.33 97.2689 507.33 92.0879C507.33 86.4435 502.759 81.8677 497.12 81.8677C491.481 81.8677 486.909 86.4435 486.909 92.0879C486.909 97.5719 491.224 102.047 496.641 102.297ZM498.485 100.353V91.8653H496.641V100.451C492.245 100.203 488.753 96.555 488.753 92.0879C488.753 87.46 492.501 83.7114 497.12 83.7114C501.739 83.7114 505.486 87.46 505.486 92.0879C505.486 96.2499 502.455 99.7008 498.485 100.353ZM398.409 153.93V179.339V180.261H399.331H465.402L496.912 211.73L497.182 212H497.563H577.913H676.242V210.156H577.913H497.945L466.435 178.687L466.165 178.417H465.783H400.253V153L400.375 152.579L400.253 152.544V137.684C405.211 137.039 409.069 132.826 409.133 127.677C409.203 122.033 404.689 117.401 399.051 117.33C393.412 117.26 388.785 121.779 388.714 127.423C388.646 132.937 392.953 137.485 398.409 137.757V152.01L372.001 144.367V112.237C377.149 111.771 381.213 107.472 381.279 102.185C381.349 96.5415 376.835 91.9092 371.197 91.839C365.558 91.7688 360.93 96.2873 360.86 101.931C360.793 107.311 364.891 111.771 370.157 112.238V143.833L351.309 138.378V74.6603C352.468 74.3714 353.327 73.3226 353.327 72.0731C353.327 70.6006 352.135 69.4069 350.664 69.4069C349.193 69.4069 348 70.6006 348 72.0731C348 73.1143 348.596 74.0161 349.466 74.455V139.071V139.764L350.131 139.956L398.409 153.93ZM379.436 102.163C379.382 106.439 376.138 109.925 372.001 110.384V102.466H370.157V110.385C365.923 109.925 362.65 106.308 362.704 101.954C362.761 97.3267 366.555 93.6251 371.174 93.6825C375.792 93.74 379.493 97.535 379.436 102.163ZM398.409 135.911C393.984 135.641 390.502 131.935 390.558 127.446C390.615 122.818 394.409 119.116 399.028 119.174C403.647 119.231 407.347 123.026 407.29 127.654C407.238 131.792 404.198 135.19 400.253 135.821V129.493C401.205 129.087 401.873 128.141 401.873 127.039C401.873 125.567 400.68 124.373 399.209 124.373C397.738 124.373 396.546 125.567 396.546 127.039C396.546 128.232 397.329 129.243 398.409 129.583V135.911ZM498.707 -22.5552V-7.59905L514.206 8.3516L514.467 8.61991V8.99401V104.25C515.483 104.625 516.208 105.604 516.208 106.752C516.208 108.224 515.016 109.418 513.545 109.418C512.074 109.418 510.881 108.224 510.881 106.752C510.881 105.604 511.606 104.625 512.623 104.25V9.36811L497.124 -6.58254L496.864 -6.85085V-7.22495V-22.5552H498.707ZM482.504 9.72265V-22.778H480.66V10.1042V10.4858L480.93 10.7557L496.198 26.0382V40.2624C495.181 40.6378 494.456 41.6164 494.456 42.7645C494.456 44.237 495.649 45.4306 497.12 45.4306C498.591 45.4306 499.783 44.237 499.783 42.7645C499.783 41.6164 499.058 40.6378 498.041 40.2624V25.6566V25.2751L497.772 25.0051L482.504 9.72265Z" fill="url(#paint2_linear_5_1360)"/>
<g filter="url(#filter3_i_5_1360)">
<rect x="2" y="2" width="672" height="299" rx="44" stroke="url(#paint3_linear_5_1360)" stroke-width="4"/>
</g>
</g>
</g>
<defs>
<filter id="filter0_i_5_1360" x="0" y="0" width="676" height="307" filterUnits="userSpaceOnUse" color-interpolation-filters="sRGB">
<feFlood flood-opacity="0" result="BackgroundImageFix"/>
<feBlend mode="normal" in="SourceGraphic" in2="BackgroundImageFix" result="shape"/>
<feColorMatrix in="SourceAlpha" type="matrix" values="0 0 0 0 0 0 0 0 0 0 0 0 0 0 0 0 0 0 127 0" result="hardAlpha"/>
<feOffset dy="4"/>
<feGaussianBlur stdDeviation="2"/>
<feComposite in2="hardAlpha" operator="arithmetic" k2="-1" k3="1"/>
<feColorMatrix type="matrix" values="0 0 0 0 0 0 0 0 0 0 0 0 0 0 0 0 0 0 0.35 0"/>
<feBlend mode="normal" in2="shape" result="effect1_innerShadow_5_1360"/>
</filter>
<filter id="filter1_f_5_1360" x="-229.189" y="-201.417" width="762.115" height="461.432" filterUnits="userSpaceOnUse" color-interpolation-filters="sRGB">
<feFlood flood-opacity="0" result="BackgroundImageFix"/>
<feBlend mode="normal" in="SourceGraphic" in2="BackgroundImageFix" result="shape"/>
<feGaussianBlur stdDeviation="97" result="effect1_foregroundBlur_5_1360"/>
</filter>
<filter id="filter2_f_5_1360" x="169.003" y="44.4688" width="762.115" height="461.432" filterUnits="userSpaceOnUse" color-interpolation-filters="sRGB">
<feFlood flood-opacity="0" result="BackgroundImageFix"/>
<feBlend mode="normal" in="SourceGraphic" in2="BackgroundImageFix" result="shape"/>
<feGaussianBlur stdDeviation="97" result="effect1_foregroundBlur_5_1360"/>
</filter>
<filter id="filter3_i_5_1360" x="0" y="0" width="676" height="307" filterUnits="userSpaceOnUse" color-interpolation-filters="sRGB">
<feFlood flood-opacity="0" result="BackgroundImageFix"/>
<feBlend mode="normal" in="SourceGraphic" in2="BackgroundImageFix" result="shape"/>
<feColorMatrix in="SourceAlpha" type="matrix" values="0 0 0 0 0 0 0 0 0 0 0 0 0 0 0 0 0 0 127 0" result="hardAlpha"/>
<feOffset dy="4"/>
<feGaussianBlur stdDeviation="2"/>
<feComposite in2="hardAlpha" operator="arithmetic" k2="-1" k3="1"/>
<feColorMatrix type="matrix" values="0 0 0 0 0 0 0 0 0 0 0 0 0 0 0 0 0 0 0.35 0"/>
<feBlend mode="normal" in2="shape" result="effect1_innerShadow_5_1360"/>
</filter>
<radialGradient id="paint0_radial_5_1360" cx="0" cy="0" r="1" gradientUnits="userSpaceOnUse" gradientTransform="translate(677.056 315.272) rotate(90) scale(112.144 265.119)">
<stop stop-color="white" stop-opacity="0.07"/>
<stop offset="1" stop-color="#C4C4C4" stop-opacity="0"/>
</radialGradient>
<radialGradient id="paint1_radial_5_1360" cx="0" cy="0" r="1" gradientUnits="userSpaceOnUse" gradientTransform="translate(609 239.5) rotate(90) scale(87.5 103)">
<stop stop-color="white" stop-opacity="0.07"/>
<stop offset="1" stop-color="#C4C4C4" stop-opacity="0"/>
</radialGradient>
<linearGradient id="paint2_linear_5_1360" x1="888.5" y1="-61.5" x2="272.193" y2="204.447" gradientUnits="userSpaceOnUse">
<stop offset="0.443464" stop-color="#8A92A6" stop-opacity="0.48"/>
<stop offset="0.598744" stop-color="#4C7EF2"/>
<stop offset="0.889905" stop-color="#ADADAD" stop-opacity="0.03"/>
</linearGradient>
<linearGradient id="paint3_linear_5_1360" x1="676" y1="246.442" x2="637.612" y2="-42.1604" gradientUnits="userSpaceOnUse">
<stop stop-color="#424549"/>
<stop offset="1" stop-color="#222222"/>
</linearGradient>
<clipPath id="clip0_5_1360">
<rect width="676" height="303" fill="white"/>
</clipPath>
</defs>
</svg>
