<svg width="334" height="426" viewBox="0 0 334 426" fill="none" xmlns="http://www.w3.org/2000/svg">
<g clip-path="url(#clip0_4_233)">
<mask id="mask0_4_233" style="mask-type:alpha" maskUnits="userSpaceOnUse" x="0" y="0" width="334" height="426">
<rect width="334" height="426" rx="46" fill="#0A0A0D"/>
</mask>
<g mask="url(#mask0_4_233)">
<g filter="url(#filter0_i_4_233)">
<rect width="331" height="504" rx="46" fill="#0A0A0D"/>
</g>
<g filter="url(#filter1_f_4_233)">
<ellipse cx="151.869" cy="29.2986" rx="187.058" ry="36.716" fill="#2F2F2D" fill-opacity="0.8"/>
</g>
<g filter="url(#filter2_f_4_233)">
<ellipse cx="550.06" cy="275.185" rx="187.058" ry="36.716" fill="#2F2F2D" fill-opacity="0.8"/>
</g>
<ellipse cx="211.119" cy="474.144" rx="265.119" ry="112.144" fill="url(#paint0_radial_4_233)"/>
<ellipse opacity="0.68" cx="213" cy="437.5" rx="103" ry="87.5" fill="url(#paint1_radial_4_233)"/>
<g filter="url(#filter3_i_4_233)">
<rect x="1" y="1" width="332" height="424" rx="45" stroke="url(#paint2_linear_4_233)" stroke-width="2"/>
</g>
<path fill-rule="evenodd" clip-rule="evenodd" d="M184.142 390.964V341.14L183.886 342.022L134.156 327.628L133.49 327.435V326.742V295.135L119.621 280.903L115.279 280.849C114.648 285.947 110.273 289.863 105.021 289.798C99.382 289.728 94.868 285.096 94.9381 279.452C95.0082 273.808 99.6359 269.289 105.274 269.359C110.678 269.427 115.049 273.684 115.342 279.006L120.026 279.064L120.408 279.069L120.675 279.342L133.49 292.493V264.295C132.421 263.948 131.649 262.944 131.649 261.759C131.649 260.286 132.841 259.092 134.312 259.092C135.783 259.092 136.976 260.286 136.976 261.759C136.976 262.869 136.298 263.821 135.334 264.222V326.049L167.195 335.271L153.958 319.033L153.751 318.778V318.45V238.483C152.682 238.136 151.91 237.132 151.91 235.947C151.91 234.474 153.102 233.28 154.573 233.28C156.044 233.28 157.237 234.474 157.237 235.947C157.237 237.057 156.559 238.009 155.594 238.41V318.122L170.122 335.944L169.964 336.073L184.142 340.176V213H185.985V339.261L199.235 326.583V264.381C198.219 264.005 197.494 263.027 197.494 261.879C197.494 260.406 198.686 259.213 200.157 259.213C201.628 259.213 202.821 260.406 202.821 261.879C202.821 263.027 202.096 264.005 201.079 264.381V326.977V327.371L200.795 327.643L185.985 341.812V374.346L214.995 342.175V296.446C213.863 296.138 213.031 295.102 213.031 293.872C213.031 292.4 214.224 291.206 215.695 291.206C217.166 291.206 218.358 292.4 218.358 293.872C218.358 294.935 217.737 295.853 216.838 296.281V342.53V342.884L216.601 343.147L185.985 377.1V390.042H232.563H280.507H280.887L281.157 390.31L313.293 422.258H411.242V424.102H312.913H312.533L312.263 423.834L280.127 391.886H232.563H185.064H184.142V390.964ZM105.378 278.882L113.493 278.983C113.192 274.678 109.635 271.257 105.252 271.203C100.633 271.145 96.8391 274.847 96.7816 279.475C96.7241 284.102 100.425 287.897 105.043 287.954C109.275 288.007 112.814 284.905 113.422 280.826L105.355 280.725L105.378 278.882ZM346.241 213.667V365.011C351.448 365.477 355.53 369.856 355.53 375.19C355.53 380.834 350.958 385.41 345.319 385.41C339.681 385.41 335.109 380.834 335.109 375.19C335.109 369.856 339.191 365.477 344.398 365.011V266.305L331.148 279.372V342.915C332.165 343.291 332.89 344.269 332.89 345.417C332.89 346.89 331.697 348.084 330.226 348.084C328.755 348.084 327.563 346.89 327.563 345.417C327.563 344.269 328.288 343.291 329.304 342.915V278.987V278.601L329.579 278.331L344.398 263.715V232.557L313.835 263.149V325.586C314.852 325.961 315.577 326.94 315.577 328.088C315.577 329.56 314.384 330.754 312.913 330.754C311.442 330.754 310.25 329.56 310.25 328.088C310.25 326.94 310.975 325.961 311.991 325.585V282.325L299.408 294.921V299.268C304.508 299.837 308.474 304.168 308.474 309.425C308.474 315.069 303.903 319.645 298.264 319.645C292.625 319.645 288.054 315.069 288.054 309.425C288.054 304.016 292.251 299.589 297.564 299.229V294.539V294.158L297.834 293.888L311.991 279.716V262.768V262.386L312.261 262.116L344.398 229.948V213.667H346.241ZM297.564 301.077C293.272 301.433 289.897 305.033 289.897 309.425C289.897 314.053 293.645 317.802 298.264 317.802C302.883 317.802 306.63 314.053 306.63 309.425C306.63 305.186 303.486 301.685 299.408 301.126V309.203H297.564V301.077ZM344.398 372.301V366.863C340.212 367.323 336.953 370.874 336.953 375.19C336.953 379.818 340.7 383.566 345.319 383.566C349.939 383.566 353.686 379.818 353.686 375.19C353.686 370.874 350.427 367.323 346.241 366.863V372.301H344.398ZM373.731 293.872C373.731 292.724 374.456 291.746 375.472 291.37V213.667H377.316V291.37C378.333 291.746 379.058 292.724 379.058 293.872C379.058 295.345 377.865 296.539 376.394 296.539C374.923 296.539 373.731 295.345 373.731 293.872ZM396.405 293.651V213.667H394.561V293.402L375.597 326.07L375.472 326.285V326.533V365.011C370.265 365.477 366.184 369.856 366.184 375.19C366.184 380.834 370.755 385.41 376.394 385.41C382.033 385.41 386.604 380.834 386.604 375.19C386.604 369.856 382.523 365.477 377.316 365.011V326.781L396.28 294.113L396.405 293.899V293.651ZM375.472 366.863V372.688C374.456 373.063 373.731 374.042 373.731 375.19C373.731 376.662 374.923 377.856 376.394 377.856C377.865 377.856 379.058 376.662 379.058 375.19C379.058 374.042 378.333 373.063 377.316 372.688V366.863C381.502 367.323 384.761 370.874 384.761 375.19C384.761 379.818 381.013 383.566 376.394 383.566C371.775 383.566 368.028 379.818 368.028 375.19C368.028 370.874 371.287 367.323 375.472 366.863ZM231.641 338.297V374.745V375.667H232.563H280.127L312.263 407.614L312.533 407.882H312.913H411.242V406.039H313.293L281.157 374.091L280.887 373.823H280.507H233.485V338.217C238.478 337.549 242.33 333.269 242.33 328.088C242.33 322.443 237.759 317.868 232.12 317.868C226.481 317.868 221.909 322.443 221.909 328.088C221.909 333.572 226.224 338.047 231.641 338.297ZM233.485 336.353V327.865H231.641V336.451C227.245 336.203 223.753 332.555 223.753 328.088C223.753 323.46 227.501 319.711 232.12 319.711C236.739 319.711 240.486 323.46 240.486 328.088C240.486 332.25 237.455 335.701 233.485 336.353ZM133.409 389.93V415.339V416.261H134.331H200.402L231.912 447.73L232.182 448H232.563H312.913H411.242V446.156H312.913H232.945L201.435 414.687L201.165 414.417H200.783H135.253V389L135.375 388.579L135.253 388.544V373.684C140.211 373.039 144.069 368.826 144.133 363.677C144.203 358.033 139.689 353.401 134.051 353.33C128.412 353.26 123.785 357.779 123.714 363.423C123.646 368.937 127.953 373.485 133.409 373.757V388.01L107.001 380.367V348.237C112.149 347.771 116.213 343.472 116.279 338.185C116.349 332.541 111.835 327.909 106.197 327.839C100.558 327.769 95.9304 332.287 95.8603 337.931C95.7935 343.311 99.891 347.771 105.157 348.238V379.833L86.3093 374.378V310.66C87.4683 310.371 88.3271 309.323 88.3271 308.073C88.3271 306.601 87.1346 305.407 85.6635 305.407C84.1925 305.407 83 306.601 83 308.073C83 309.114 83.5963 310.016 84.4656 310.455V375.071V375.764L85.1312 375.956L133.409 389.93ZM114.436 338.163C114.382 342.439 111.138 345.925 107.001 346.384V338.466H105.157V346.385C100.923 345.925 97.6498 342.308 97.7039 337.954C97.7613 333.327 101.555 329.625 106.174 329.683C110.792 329.74 114.493 333.535 114.436 338.163ZM133.409 371.911C128.984 371.641 125.502 367.935 125.558 363.446C125.615 358.818 129.409 355.116 134.028 355.174C138.647 355.231 142.347 359.026 142.29 363.654C142.238 367.792 139.198 371.19 135.253 371.821V365.493C136.205 365.087 136.873 364.141 136.873 363.039C136.873 361.567 135.68 360.373 134.209 360.373C132.738 360.373 131.546 361.567 131.546 363.039C131.546 364.232 132.329 365.243 133.409 365.583V371.911ZM233.707 213.445V228.401L249.206 244.352L249.467 244.62V244.994V340.25C250.483 340.625 251.208 341.604 251.208 342.752C251.208 344.224 250.016 345.418 248.545 345.418C247.074 345.418 245.881 344.224 245.881 342.752C245.881 341.604 246.606 340.625 247.623 340.25V245.368L232.124 229.417L231.864 229.149V228.775V213.445H233.707ZM217.504 245.723V213.222H215.66V246.104V246.486L215.93 246.756L231.198 262.038V276.262C230.181 276.638 229.456 277.616 229.456 278.765C229.456 280.237 230.649 281.431 232.12 281.431C233.591 281.431 234.783 280.237 234.783 278.765C234.783 277.616 234.058 276.638 233.041 276.262V261.657V261.275L232.772 261.005L217.504 245.723Z" fill="url(#paint3_linear_4_233)"/>
</g>
</g>
<defs>
<filter id="filter0_i_4_233" x="0" y="0" width="331" height="508" filterUnits="userSpaceOnUse" color-interpolation-filters="sRGB">
<feFlood flood-opacity="0" result="BackgroundImageFix"/>
<feBlend mode="normal" in="SourceGraphic" in2="BackgroundImageFix" result="shape"/>
<feColorMatrix in="SourceAlpha" type="matrix" values="0 0 0 0 0 0 0 0 0 0 0 0 0 0 0 0 0 0 127 0" result="hardAlpha"/>
<feOffset dy="4"/>
<feGaussianBlur stdDeviation="2"/>
<feComposite in2="hardAlpha" operator="arithmetic" k2="-1" k3="1"/>
<feColorMatrix type="matrix" values="0 0 0 0 0 0 0 0 0 0 0 0 0 0 0 0 0 0 0.35 0"/>
<feBlend mode="normal" in2="shape" result="effect1_innerShadow_4_233"/>
</filter>
<filter id="filter1_f_4_233" x="-229.189" y="-201.417" width="762.115" height="461.432" filterUnits="userSpaceOnUse" color-interpolation-filters="sRGB">
<feFlood flood-opacity="0" result="BackgroundImageFix"/>
<feBlend mode="normal" in="SourceGraphic" in2="BackgroundImageFix" result="shape"/>
<feGaussianBlur stdDeviation="97" result="effect1_foregroundBlur_4_233"/>
</filter>
<filter id="filter2_f_4_233" x="169.003" y="44.4688" width="762.115" height="461.432" filterUnits="userSpaceOnUse" color-interpolation-filters="sRGB">
<feFlood flood-opacity="0" result="BackgroundImageFix"/>
<feBlend mode="normal" in="SourceGraphic" in2="BackgroundImageFix" result="shape"/>
<feGaussianBlur stdDeviation="97" result="effect1_foregroundBlur_4_233"/>
</filter>
<filter id="filter3_i_4_233" x="0" y="0" width="334" height="430" filterUnits="userSpaceOnUse" color-interpolation-filters="sRGB">
<feFlood flood-opacity="0" result="BackgroundImageFix"/>
<feBlend mode="normal" in="SourceGraphic" in2="BackgroundImageFix" result="shape"/>
<feColorMatrix in="SourceAlpha" type="matrix" values="0 0 0 0 0 0 0 0 0 0 0 0 0 0 0 0 0 0 127 0" result="hardAlpha"/>
<feOffset dy="4"/>
<feGaussianBlur stdDeviation="2"/>
<feComposite in2="hardAlpha" operator="arithmetic" k2="-1" k3="1"/>
<feColorMatrix type="matrix" values="0 0 0 0 0 0 0 0 0 0 0 0 0 0 0 0 0 0 0.35 0"/>
<feBlend mode="normal" in2="shape" result="effect1_innerShadow_4_233"/>
</filter>
<radialGradient id="paint0_radial_4_233" cx="0" cy="0" r="1" gradientUnits="userSpaceOnUse" gradientTransform="translate(211.119 474.144) rotate(90) scale(112.144 265.119)">
<stop stop-color="white" stop-opacity="0.07"/>
<stop offset="1" stop-color="#C4C4C4" stop-opacity="0"/>
</radialGradient>
<radialGradient id="paint1_radial_4_233" cx="0" cy="0" r="1" gradientUnits="userSpaceOnUse" gradientTransform="translate(213 437.5) rotate(90) scale(87.5 103)">
<stop stop-color="white" stop-opacity="0.07"/>
<stop offset="1" stop-color="#C4C4C4" stop-opacity="0"/>
</radialGradient>
<linearGradient id="paint2_linear_4_233" x1="334" y1="346.483" x2="197.29" y2="-14.71" gradientUnits="userSpaceOnUse">
<stop stop-color="#424549"/>
<stop offset="1" stop-color="#222222"/>
</linearGradient>
<linearGradient id="paint3_linear_4_233" x1="623.5" y1="174.5" x2="7.19293" y2="440.447" gradientUnits="userSpaceOnUse">
<stop offset="0.443464" stop-color="#8A92A6" stop-opacity="0.48"/>
<stop offset="0.598744" stop-color="#4C7EF2"/>
<stop offset="0.889905" stop-color="#ADADAD" stop-opacity="0.03"/>
</linearGradient>
<clipPath id="clip0_4_233">
<rect width="334" height="426" fill="white"/>
</clipPath>
</defs>
</svg>
