<svg width="338" height="334" viewBox="0 0 338 334" fill="none" xmlns="http://www.w3.org/2000/svg">
<path d="M83.3159 18.1345V321.893" stroke="url(#paint0_linear_4_101)" stroke-opacity="0.4" stroke-width="3" stroke-linecap="round" stroke-dasharray="10 10"/>
<path d="M163.288 18.1345V321.893" stroke="url(#paint1_linear_4_101)" stroke-opacity="0.4" stroke-width="3" stroke-linecap="round" stroke-dasharray="10 10"/>
<path d="M243.26 18.1345V321.893" stroke="url(#paint2_linear_4_101)" stroke-opacity="0.4" stroke-width="3" stroke-linecap="round" stroke-dasharray="10 10"/>
<path d="M2 2V314.507" stroke="url(#paint3_linear_4_101)" stroke-opacity="0.9" stroke-width="3" stroke-linecap="round"/>
<path d="M5.36011 149.181L336 149.181" stroke="url(#paint4_linear_4_101)" stroke-opacity="0.9" stroke-width="3" stroke-linecap="round"/>
<path d="M19.108 320.95L17.176 321.986L16.7 321.02L19.444 319.55H20.2V329H19.108V320.95ZM22.6776 325.808V322.742C22.6776 321.79 23.0182 321.001 23.6996 320.376C24.3902 319.732 25.2349 319.41 26.2336 319.41C27.2416 319.41 28.0816 319.732 28.7536 320.376C29.4349 321.001 29.7756 321.79 29.7756 322.742V325.808C29.7756 326.76 29.4396 327.553 28.7676 328.188C28.0862 328.823 27.2416 329.14 26.2336 329.14C25.2349 329.14 24.3902 328.823 23.6996 328.188C23.0182 327.563 22.6776 326.769 22.6776 325.808ZM23.7696 322.728V325.822C23.7696 326.466 24.0076 327.007 24.4836 327.446C24.9502 327.875 25.5336 328.09 26.2336 328.09C26.9336 328.09 27.5122 327.875 27.9696 327.446C28.4456 327.007 28.6836 326.466 28.6836 325.822V322.728C28.6836 322.093 28.4456 321.557 27.9696 321.118C27.5029 320.679 26.9242 320.46 26.2336 320.46C25.5522 320.46 24.9689 320.679 24.4836 321.118C24.0076 321.557 23.7696 322.093 23.7696 322.728Z" fill="#D4D4D4"/>
<path d="M99.852 322.252C99.852 321.757 99.6513 321.337 99.25 320.992C98.8393 320.637 98.3587 320.46 97.808 320.46C97.3133 320.46 96.87 320.605 96.478 320.894C96.086 321.174 95.792 321.566 95.596 322.07L94.588 321.594C94.868 320.922 95.2927 320.39 95.862 319.998C96.4313 319.606 97.08 319.41 97.808 319.41C98.6853 319.41 99.4367 319.685 100.062 320.236C100.678 320.787 100.986 321.449 100.986 322.224C100.986 322.728 100.832 323.223 100.524 323.708C100.216 324.184 99.712 324.758 99.012 325.43L96.394 327.95H101.126V329H94.686V328.202L98.284 324.716C98.8533 324.147 99.2547 323.689 99.488 323.344C99.7307 322.989 99.852 322.625 99.852 322.252ZM102.674 325.808V322.742C102.674 321.79 103.014 321.001 103.696 320.376C104.386 319.732 105.231 319.41 106.23 319.41C107.238 319.41 108.078 319.732 108.75 320.376C109.431 321.001 109.772 321.79 109.772 322.742V325.808C109.772 326.76 109.436 327.553 108.764 328.188C108.082 328.823 107.238 329.14 106.23 329.14C105.231 329.14 104.386 328.823 103.696 328.188C103.014 327.563 102.674 326.769 102.674 325.808ZM103.766 322.728V325.822C103.766 326.466 104.004 327.007 104.48 327.446C104.946 327.875 105.53 328.09 106.23 328.09C106.93 328.09 107.508 327.875 107.966 327.446C108.442 327.007 108.68 326.466 108.68 325.822V322.728C108.68 322.093 108.442 321.557 107.966 321.118C107.499 320.679 106.92 320.46 106.23 320.46C105.548 320.46 104.965 320.679 104.48 321.118C104.004 321.557 103.766 322.093 103.766 322.728Z" fill="#D4D4D4"/>
<path d="M179.88 322.042C179.88 321.585 179.679 321.211 179.278 320.922C178.886 320.614 178.391 320.46 177.794 320.46C177.318 320.46 176.893 320.563 176.52 320.768C176.147 320.973 175.876 321.249 175.708 321.594L174.728 321.104C174.98 320.581 175.377 320.171 175.918 319.872C176.469 319.564 177.094 319.41 177.794 319.41C178.718 319.41 179.483 319.662 180.09 320.166C180.706 320.661 181.014 321.277 181.014 322.014C181.014 322.462 180.888 322.873 180.636 323.246C180.393 323.61 180.048 323.904 179.6 324.128C180.104 324.343 180.501 324.655 180.79 325.066C181.089 325.467 181.238 325.915 181.238 326.41C181.238 327.194 180.911 327.843 180.258 328.356C179.605 328.879 178.797 329.14 177.836 329.14C177.08 329.14 176.408 328.977 175.82 328.65C175.241 328.314 174.835 327.866 174.602 327.306L175.652 326.914C175.801 327.269 176.072 327.553 176.464 327.768C176.856 327.983 177.313 328.09 177.836 328.09C178.48 328.09 179.021 327.927 179.46 327.6C179.889 327.283 180.104 326.872 180.104 326.368C180.104 325.892 179.889 325.495 179.46 325.178C179.031 324.851 178.508 324.688 177.892 324.688H177.178V323.666H177.696C178.331 323.666 178.849 323.512 179.25 323.204C179.67 322.896 179.88 322.509 179.88 322.042ZM182.783 325.808V322.742C182.783 321.79 183.124 321.001 183.805 320.376C184.496 319.732 185.34 319.41 186.339 319.41C187.347 319.41 188.187 319.732 188.859 320.376C189.54 321.001 189.881 321.79 189.881 322.742V325.808C189.881 326.76 189.545 327.553 188.873 328.188C188.192 328.823 187.347 329.14 186.339 329.14C185.34 329.14 184.496 328.823 183.805 328.188C183.124 327.563 182.783 326.769 182.783 325.808ZM183.875 322.728V325.822C183.875 326.466 184.113 327.007 184.589 327.446C185.056 327.875 185.639 328.09 186.339 328.09C187.039 328.09 187.618 327.875 188.075 327.446C188.551 327.007 188.789 326.466 188.789 325.822V322.728C188.789 322.093 188.551 321.557 188.075 321.118C187.608 320.679 187.03 320.46 186.339 320.46C185.658 320.46 185.074 320.679 184.589 321.118C184.113 321.557 183.875 322.093 183.875 322.728Z" fill="#D4D4D4"/>
<path d="M259.866 329V327.026H254.602V325.976L259.936 319.55H260.958V325.976H262.344V327.026H260.958V329H259.866ZM259.866 321.216L255.932 325.976H259.866V321.216ZM263.685 325.808V322.742C263.685 321.79 264.026 321.001 264.707 320.376C265.398 319.732 266.243 319.41 267.241 319.41C268.249 319.41 269.089 319.732 269.761 320.376C270.443 321.001 270.783 321.79 270.783 322.742V325.808C270.783 326.76 270.447 327.553 269.775 328.188C269.094 328.823 268.249 329.14 267.241 329.14C266.243 329.14 265.398 328.823 264.707 328.188C264.026 327.563 263.685 326.769 263.685 325.808ZM264.777 322.728V325.822C264.777 326.466 265.015 327.007 265.491 327.446C265.958 327.875 266.541 328.09 267.241 328.09C267.941 328.09 268.52 327.875 268.977 327.446C269.453 327.007 269.691 326.466 269.691 325.822V322.728C269.691 322.093 269.453 321.557 268.977 321.118C268.511 320.679 267.932 320.46 267.241 320.46C266.56 320.46 265.977 320.679 265.491 321.118C265.015 321.557 264.777 322.093 264.777 322.728Z" fill="#D4D4D4"/>
<defs>
<linearGradient id="paint0_linear_4_101" x1="83.8159" y1="18.1345" x2="83.8159" y2="321.893" gradientUnits="userSpaceOnUse">
<stop offset="0.0260417" stop-color="#0B0B0F"/>
<stop offset="0.505208" stop-color="#2163FF"/>
<stop offset="1" stop-color="#0B0A13"/>
</linearGradient>
<linearGradient id="paint1_linear_4_101" x1="163.788" y1="18.1345" x2="163.788" y2="321.893" gradientUnits="userSpaceOnUse">
<stop offset="0.0260417" stop-color="#0B0B0F"/>
<stop offset="0.505208" stop-color="#2163FF"/>
<stop offset="1" stop-color="#0B0A13"/>
</linearGradient>
<linearGradient id="paint2_linear_4_101" x1="243.76" y1="18.1345" x2="243.76" y2="321.893" gradientUnits="userSpaceOnUse">
<stop offset="0.0260417" stop-color="#0B0B0F"/>
<stop offset="0.505208" stop-color="#2163FF"/>
<stop offset="1" stop-color="#0B0A13"/>
</linearGradient>
<linearGradient id="paint3_linear_4_101" x1="2" y1="-61.0882" x2="2" y2="376.128" gradientUnits="userSpaceOnUse">
<stop offset="0.015625" stop-color="#0C0A17"/>
<stop offset="0.484375" stop-color="#3874FF"/>
<stop offset="1" stop-color="#0B0A13"/>
</linearGradient>
<linearGradient id="paint4_linear_4_101" x1="-61.3888" y1="149.181" x2="401.197" y2="149.181" gradientUnits="userSpaceOnUse">
<stop offset="0.015625" stop-color="#0C0A17"/>
<stop offset="0.484375" stop-color="#3874FF"/>
<stop offset="1" stop-color="#0B0A13"/>
</linearGradient>
</defs>
</svg>
